<svg viewBox="0 0 800 450" xmlns="http://www.w3.org/2000/svg" role="img">
  <title>Flightline communications: a surface-wave mesh of relay nodes along a runway edge at night, linking down a taxiway to a tracked parked aircraft on the apron, with hangar, ground vehicles, and perimeter road</title>
  <style>
    .l-flow { stroke-dasharray: 5 8; animation: flow 5.5s linear infinite; }
    .l-flow2 { stroke-dasharray: 3 9; animation: flow 8s linear infinite; }
    @keyframes flow { to { stroke-dashoffset: -156; } }
    .ringa { transform-origin: 563px 244px; animation: ping 7s ease-out infinite; opacity: 0; }
    .ringa.r2 { animation-delay: 3.5s; }
    .ringb { transform-origin: 253px 322px; animation: ping 8s ease-out infinite 1.5s; opacity: 0; }
    @keyframes ping { 0% { transform: scale(0.15); opacity: 0.32; } 65% { transform: scale(1); opacity: 0; } 100% { transform: scale(1); opacity: 0; } }
    .dot-b { animation: blink 3.4s ease-in-out infinite; }
    .dot-b2 { animation: blink 2.6s ease-in-out infinite 0.9s; }
    .dot-b3 { animation: blink 3s ease-in-out infinite 1.7s; }
    @keyframes blink { 0%, 100% { opacity: 0.2; } 50% { opacity: 1; } }
    .lt1 { animation: glow 3.2s ease-in-out infinite; }
    .lt2 { animation: glow 3.2s ease-in-out infinite 1.1s; }
    .lt3 { animation: glow 3.2s ease-in-out infinite 2.2s; }
    @keyframes glow { 0%, 100% { opacity: 0.3; } 50% { opacity: 0.95; } }
    .truck-g { animation: taxi 12s ease-in-out infinite alternate; }
    @keyframes taxi { from { transform: translate(0, 0); } to { transform: translate(11px, -3px); } }
    .wave-poly { animation: wv 2.8s linear infinite; }
    @keyframes wv { from { transform: translateX(0); } to { transform: translateX(-24px); } }
    .twinkle { animation: blink 5.5s ease-in-out infinite 2s; }
    @media (prefers-reduced-motion: reduce) { * { animation: none !important; } }
  </style>
  <defs>
    <linearGradient id="bg" x1="0" y1="0" x2="0" y2="1">
      <stop offset="0" stop-color="#0c141f"/><stop offset="0.5" stop-color="#0e1621"/><stop offset="1" stop-color="#121c28"/>
    </linearGradient>
    <radialGradient id="vg" cx="0.46" cy="0.42" r="0.8">
      <stop offset="0.55" stop-color="#0a121d" stop-opacity="0"/><stop offset="1" stop-color="#0a121d" stop-opacity="0.5"/>
    </radialGradient>
    <symbol id="bush1" viewBox="0 0 20 14">
      <ellipse cx="7" cy="8" rx="7" ry="5" fill="#37453e"/><ellipse cx="13" cy="7" rx="6" ry="4.6" fill="#48564e"/><ellipse cx="10" cy="5" rx="4" ry="3" fill="#5d6b62"/>
    </symbol>
    <symbol id="bush2" viewBox="0 0 16 12">
      <ellipse cx="6" cy="7" rx="6" ry="4.4" fill="#48564e"/><ellipse cx="11" cy="6" rx="4.6" ry="3.6" fill="#5d6b62"/><ellipse cx="8" cy="4" rx="2.6" ry="2" fill="#6f7d70"/>
    </symbol>
    <symbol id="bush3" viewBox="0 0 12 10">
      <ellipse cx="5" cy="6" rx="5" ry="3.6" fill="#37453e"/><ellipse cx="8" cy="4.6" rx="3.4" ry="2.6" fill="#48564e"/>
    </symbol>
    <symbol id="plus" viewBox="0 0 8 8">
      <path d="M4 0v8M0 4h8" stroke="#eef2f6" stroke-width="1" fill="none"/>
    </symbol>
    <symbol id="node" viewBox="0 0 12 14">
      <ellipse cx="6" cy="12.4" rx="4.6" ry="1.5" fill="#1a2733" opacity="0.7"/>
      <rect x="4.3" y="7" width="3.4" height="5" fill="#4a5560"/>
      <rect x="3.6" y="11" width="4.8" height="1.4" fill="#3a4a44"/>
      <line x1="6" y1="7" x2="6" y2="1.6" stroke="#d7dee6" stroke-width="1"/>
    </symbol>
  </defs>

  <rect width="800" height="450" fill="url(#bg)"/>

  <g fill="none" stroke="#eef2f6" stroke-width="1">
    <path d="M-20 45 C 240 20 560 22 820 40" opacity="0.05"/>
    <path d="M-20 90 C 160 74 360 100 560 84 S 760 66 820 76" opacity="0.035"/>
    <path d="M-20 150 C 180 136 380 162 580 146 S 770 130 820 140" opacity="0.04"/>
    <path d="M-20 212 C 170 198 370 224 570 208 S 770 192 820 202" opacity="0.04"/>
    <path d="M-20 275 C 190 260 380 288 590 271 S 775 256 820 266" opacity="0.04"/>
    <path d="M-20 338 C 175 324 385 350 585 334 S 770 318 820 328" opacity="0.035"/>
    <path d="M-20 400 C 190 388 390 412 600 397 S 775 382 820 392" opacity="0.03"/>
    <path d="M60 -20 C 40 140 60 300 30 470" opacity="0.03"/>
    <path d="M215 -20 C 195 150 220 310 195 470" opacity="0.035"/>
    <path d="M370 -20 C 352 150 376 300 355 470" opacity="0.035"/>
    <path d="M525 -20 C 508 140 532 300 512 470" opacity="0.03"/>
    <path d="M675 -20 C 660 150 682 310 665 470" opacity="0.03"/>
    <path d="M-20 250 C 120 210 300 190 470 150 S 720 90 820 60" opacity="0.03"/>
    <path d="M-20 430 C 150 400 330 380 500 340 S 740 270 820 240" opacity="0.028"/>
  </g>
  <ellipse cx="240" cy="320" rx="190" ry="60" fill="#eef2f6" opacity="0.022"/>
  <ellipse cx="560" cy="170" rx="150" ry="48" fill="#eef2f6" opacity="0.02"/>
  <ellipse cx="670" cy="390" rx="130" ry="42" fill="#eef2f6" opacity="0.02"/>

  <path d="M-20 40 C 110 32 250 56 372 98 C 296 158 178 238 64 296 C 34 310 -20 326 -20 326 Z" fill="#37453e" opacity="0.2"/>
  <path d="M30 96 C 130 78 220 96 300 122 C 240 168 150 226 70 266 C 40 258 10 200 30 96 Z" fill="#48564e" opacity="0.12"/>
  <path d="M-20 356 C 70 376 170 418 268 462 L -20 462 Z" fill="#37453e" opacity="0.18"/>
  <path d="M556 -20 C 616 38 700 88 820 108 L 820 -20 Z" fill="#37453e" opacity="0.16"/>
  <g stroke="#48564e" fill="none" opacity="0.14" stroke-width="9">
    <path d="M 30 150 L 290 84"/>
    <path d="M 44 186 L 260 130"/>
    <path d="M 24 236 L 200 190"/>
  </g>

  <path d="M-20 152 C 80 132 150 96 250 70 C 340 47 440 32 570 20" fill="none" stroke="#4a5560" stroke-width="15" opacity="0.15"/>
  <path d="M-20 152 C 80 132 150 96 250 70 C 340 47 440 32 570 20" fill="none" stroke="#1a2733" stroke-width="12"/>
  <path d="M-20 152 C 80 132 150 96 250 70 C 340 47 440 32 570 20" fill="none" stroke="#4a5560" stroke-width="1" stroke-dasharray="7 9" opacity="0.45"/>
  <g transform="translate(196,86) rotate(-15)">
    <ellipse cx="0" cy="2.4" rx="8" ry="2.6" fill="#0a121d" opacity="0.55"/>
    <rect x="-7" y="-3" width="14" height="6" rx="1.5" fill="#4a5560"/>
    <rect x="0" y="-2.4" width="5" height="4.8" rx="1" fill="#6b7885"/>
    <circle cx="7.6" cy="0" r="1" fill="#eef2f6" opacity="0.55" class="lt2"/>
  </g>
  <text transform="rotate(-15 60 176)" x="60" y="176" font-family="ui-monospace, 'SF Mono', Menlo, monospace" font-size="8" letter-spacing="1.8" fill="#5b6b7a" opacity="0.8">PERIMETER ROAD</text>

  <use href="#bush1" x="264" y="30" width="22" height="15"/>
  <use href="#bush2" x="306" y="22" width="17" height="12"/>
  <use href="#bush3" x="344" y="42" width="13" height="10"/>
  <use href="#bush2" x="416" y="26" width="18" height="13"/>
  <use href="#bush3" x="452" y="44" width="12" height="9"/>
  <use href="#bush1" x="498" y="20" width="20" height="14"/>
  <use href="#bush3" x="546" y="38" width="13" height="10"/>
  <use href="#bush1" x="606" y="52" width="24" height="16"/>
  <use href="#bush2" x="646" y="38" width="18" height="13"/>
  <use href="#bush1" x="682" y="64" width="25" height="17"/>
  <use href="#bush2" x="720" y="48" width="19" height="13"/>
  <use href="#bush1" x="752" y="78" width="26" height="17"/>
  <use href="#bush2" x="738" y="104" width="20" height="14"/>
  <use href="#bush3" x="700" y="116" width="14" height="10"/>
  <use href="#bush1" x="660" y="96" width="22" height="15"/>
  <use href="#bush3" x="776" y="120" width="13" height="9"/>
  <use href="#bush2" x="56" y="176" width="17" height="12"/>
  <use href="#bush3" x="96" y="204" width="13" height="10"/>
  <use href="#bush1" x="34" y="226" width="20" height="14"/>
  <use href="#bush3" x="128" y="166" width="12" height="9"/>
  <use href="#bush2" x="146" y="416" width="18" height="13"/>
  <use href="#bush1" x="188" y="432" width="22" height="15"/>
  <use href="#bush3" x="238" y="410" width="13" height="10"/>
  <use href="#bush2" x="116" y="396" width="16" height="11"/>

  <use href="#plus" x="140" y="84" width="8" height="8" opacity="0.12"/>
  <use href="#plus" x="520" y="58" width="8" height="8" opacity="0.1"/>
  <use href="#plus" x="700" y="118" width="7" height="7" opacity="0.1"/>
  <use href="#plus" x="48" y="286" width="7" height="7" opacity="0.09"/>
  <use href="#plus" x="360" y="398" width="8" height="8" opacity="0.12"/>
  <use href="#plus" x="500" y="332" width="7" height="7" opacity="0.1"/>
  <use href="#plus" x="620" y="300" width="7" height="7" opacity="0.09"/>
  <circle cx="90" cy="140" r="1" fill="#eef2f6" opacity="0.11"/>
  <circle cx="260" cy="90" r="1" fill="#eef2f6" opacity="0.1" class="twinkle"/>
  <circle cx="430" cy="110" r="1.2" fill="#eef2f6" opacity="0.09"/>
  <circle cx="580" cy="90" r="1" fill="#eef2f6" opacity="0.1"/>
  <circle cx="750" cy="240" r="1" fill="#eef2f6" opacity="0.09"/>
  <circle cx="170" cy="260" r="1" fill="#eef2f6" opacity="0.1"/>
  <circle cx="320" cy="440" r="1" fill="#eef2f6" opacity="0.08" class="twinkle"/>
  <circle cx="560" cy="430" r="1" fill="#eef2f6" opacity="0.08"/>
  <circle cx="40" cy="60" r="1" fill="#eef2f6" opacity="0.1"/>
  <circle cx="700" cy="442" r="1" fill="#eef2f6" opacity="0.08"/>

  <g transform="rotate(-14 400 250)">
    <rect x="-140" y="223" width="168" height="56" fill="#1a2733" opacity="0.9"/>
    <path d="M -48 232 L -28 251 L -48 270 M -22 232 L -2 251 L -22 270 M 4 232 L 24 251 L 4 270" fill="none" stroke="#6b7885" stroke-width="2" opacity="0.28"/>
    <rect x="30" y="223" width="930" height="56" fill="#232f3d"/>
    <line x1="30" y1="226" x2="960" y2="226" stroke="#6b7885" stroke-width="1.4" opacity="0.5"/>
    <line x1="30" y1="276" x2="960" y2="276" stroke="#6b7885" stroke-width="1.4" opacity="0.5"/>
    <rect x="31" y="223" width="3.5" height="56" fill="#6b7885" opacity="0.55"/>
    <rect x="44" y="227" width="34" height="4" fill="#6b7885" opacity="0.72"/>
    <rect x="44" y="234" width="34" height="4" fill="#6b7885" opacity="0.72"/>
    <rect x="44" y="241" width="34" height="4" fill="#6b7885" opacity="0.72"/>
    <rect x="44" y="248" width="34" height="4" fill="#6b7885" opacity="0.72"/>
    <rect x="44" y="255" width="34" height="4" fill="#6b7885" opacity="0.72"/>
    <rect x="44" y="262" width="34" height="4" fill="#6b7885" opacity="0.72"/>
    <rect x="44" y="269" width="34" height="4" fill="#6b7885" opacity="0.72"/>
    <text transform="rotate(90 112 251)" x="103" y="255" font-family="ui-monospace, 'SF Mono', Menlo, monospace" font-size="12" letter-spacing="2" fill="#6b7885" opacity="0.7">09L</text>
    <line x1="140" y1="251" x2="940" y2="251" stroke="#6b7885" stroke-width="2.4" stroke-dasharray="26 20" opacity="0.6"/>
    <rect x="225" y="231" width="22" height="4.5" fill="#6b7885" opacity="0.5"/>
    <rect x="225" y="266.5" width="22" height="4.5" fill="#6b7885" opacity="0.5"/>
    <rect x="390" y="233" width="18" height="4" fill="#6b7885" opacity="0.45"/>
    <rect x="390" y="265" width="18" height="4" fill="#6b7885" opacity="0.45"/>
    <rect x="520" y="235" width="14" height="3.5" fill="#6b7885" opacity="0.4"/>
    <rect x="520" y="263.5" width="14" height="3.5" fill="#6b7885" opacity="0.4"/>
    <rect x="300" y="233" width="36" height="6.5" fill="#6b7885" opacity="0.66"/>
    <rect x="300" y="262.5" width="36" height="6.5" fill="#6b7885" opacity="0.66"/>
    <rect x="152" y="245" width="34" height="2.6" fill="#1a2733" opacity="0.85"/>
    <rect x="150" y="255" width="34" height="2.6" fill="#1a2733" opacity="0.85"/>
    <rect x="198" y="243" width="26" height="2.4" fill="#1a2733" opacity="0.75"/>
    <rect x="196" y="257" width="26" height="2.4" fill="#1a2733" opacity="0.75"/>
    <rect x="470" y="246" width="30" height="2.4" fill="#1a2733" opacity="0.7"/>
    <rect x="472" y="254" width="30" height="2.4" fill="#1a2733" opacity="0.7"/>
    <circle cx="26" cy="230" r="1.3" fill="#58c184" opacity="0.75" class="lt2"/>
    <circle cx="26" cy="240.5" r="1.3" fill="#58c184" opacity="0.75" class="lt3"/>
    <circle cx="26" cy="251" r="1.3" fill="#58c184" opacity="0.75" class="lt1"/>
    <circle cx="26" cy="261.5" r="1.3" fill="#58c184" opacity="0.75" class="lt2"/>
    <circle cx="26" cy="272" r="1.3" fill="#58c184" opacity="0.75" class="lt3"/>
    <circle cx="12" cy="251" r="1.2" fill="#eef2f6" class="lt1"/>
    <circle cx="-10" cy="251" r="1.2" fill="#eef2f6" class="lt2"/>
    <g fill="#eef2f6">
      <circle cx="10" cy="220" r="1.4" class="lt1"/><circle cx="95" cy="220" r="1.4" class="lt2"/><circle cx="180" cy="220" r="1.4" class="lt3"/><circle cx="265" cy="220" r="1.4" class="lt1"/><circle cx="350" cy="220" r="1.4" class="lt2"/><circle cx="435" cy="220" r="1.4" class="lt3"/><circle cx="520" cy="220" r="1.4" class="lt1"/><circle cx="605" cy="220" r="1.4" class="lt2"/><circle cx="690" cy="220" r="1.4" class="lt3"/><circle cx="775" cy="220" r="1.4" class="lt1"/><circle cx="860" cy="220" r="1.4" class="lt2"/>
      <circle cx="10" cy="282" r="1.4" class="lt3"/><circle cx="95" cy="282" r="1.4" class="lt1"/><circle cx="180" cy="282" r="1.4" class="lt2"/><circle cx="265" cy="282" r="1.4" class="lt3"/><circle cx="350" cy="282" r="1.4" class="lt1"/><circle cx="435" cy="282" r="1.4" class="lt2"/><circle cx="520" cy="282" r="1.4" class="lt3"/><circle cx="605" cy="282" r="1.4" class="lt1"/><circle cx="690" cy="282" r="1.4" class="lt2"/><circle cx="775" cy="282" r="1.4" class="lt3"/><circle cx="860" cy="282" r="1.4" class="lt1"/>
    </g>
    <polygon points="540,279 600,279 670,430 610,430" fill="#1a2733"/>
    <line x1="570" y1="282" x2="640" y2="426" stroke="#6b7885" stroke-width="1.4" stroke-dasharray="10 8" opacity="0.38"/>
    <path d="M 546 292 L 606 292" stroke="#6b7885" stroke-width="1.6" opacity="0.45"/>
    <path d="M 548 296 L 608 296" stroke="#6b7885" stroke-width="1.2" stroke-dasharray="4 4" opacity="0.4"/>
    <circle cx="553" cy="320" r="1.2" fill="#6aa9e9" opacity="0.7" class="lt2"/>
    <circle cx="625" cy="320" r="1.2" fill="#6aa9e9" opacity="0.7" class="lt3"/>
    <circle cx="581" cy="380" r="1.2" fill="#6aa9e9" opacity="0.7" class="lt1"/>
    <circle cx="653" cy="380" r="1.2" fill="#6aa9e9" opacity="0.7" class="lt2"/>
    <use href="#node" x="74" y="282" width="12" height="14"/>
    <use href="#node" x="234" y="282" width="12" height="14"/>
    <use href="#node" x="394" y="282" width="12" height="14"/>
    <use href="#node" x="514" y="282" width="12" height="14"/>
    <use href="#node" x="714" y="282" width="12" height="14"/>
    <path class="l-flow2" d="M -60 284 L 80 284 M 720 284 L 940 284" fill="none" stroke="#9fd4e8" stroke-width="1.1" opacity="0.28"/>
    <path class="l-flow" d="M 80 284 L 720 284" fill="none" stroke="#6aa9e9" stroke-width="1.5" opacity="0.62"/>
    <circle cx="80" cy="284" r="2.2" fill="#6aa9e9" class="dot-b"/>
    <circle cx="240" cy="284" r="2.2" fill="#6aa9e9" class="dot-b2"/>
    <circle cx="400" cy="284" r="2.2" fill="#6aa9e9" class="dot-b3"/>
    <circle cx="520" cy="284" r="2.2" fill="#6aa9e9" class="dot-b"/>
    <circle cx="720" cy="284" r="2.2" fill="#6aa9e9" class="dot-b2"/>
  </g>

  <polygon points="596,400 646,372 706,356 800,348 800,450 560,450" fill="#1a2733"/>
  <line x1="600" y1="404" x2="796" y2="366" stroke="#4a5560" stroke-width="1" opacity="0.25"/>
  <line x1="586" y1="428" x2="798" y2="392" stroke="#4a5560" stroke-width="1" opacity="0.22"/>
  <line x1="620" y1="448" x2="800" y2="420" stroke="#4a5560" stroke-width="1" opacity="0.18"/>
  <line x1="650" y1="382" x2="696" y2="372" stroke="#4a5560" stroke-width="1.2" opacity="0.45"/>
  <line x1="672" y1="377" x2="672" y2="404" stroke="#4a5560" stroke-width="1.2" opacity="0.4"/>

  <rect x="698" y="334" width="88" height="7" fill="#0a121d" opacity="0.4"/>
  <rect x="704" y="296" width="82" height="44" fill="#232f3d"/>
  <rect x="708" y="300" width="74" height="36" fill="#4a5560" opacity="0.45"/>
  <line x1="724" y1="298" x2="724" y2="338" stroke="#1a2733" stroke-width="1" opacity="0.7"/>
  <line x1="742" y1="298" x2="742" y2="338" stroke="#1a2733" stroke-width="1" opacity="0.7"/>
  <line x1="760" y1="298" x2="760" y2="338" stroke="#1a2733" stroke-width="1" opacity="0.7"/>
  <rect x="734" y="300" width="9" height="36" fill="#6b7885" opacity="0.28"/>
  <rect x="712" y="335" width="66" height="4" fill="#6b7885" opacity="0.4"/>
  <circle cx="708" cy="299" r="2" fill="#2ec4b6" class="dot-b2"/>
  <line x1="694" y1="318" x2="694" y2="301" stroke="#d7dee6" stroke-width="1" opacity="0.7"/>
  <circle cx="694" cy="299" r="1.8" fill="#6aa9e9" class="dot-b3"/>
  <text x="620" y="306" font-family="ui-monospace, 'SF Mono', Menlo, monospace" font-size="8" letter-spacing="1.8" fill="#5b6b7a" opacity="0.8">HANGAR 3</text>
  <text x="588" y="443" font-family="ui-monospace, 'SF Mono', Menlo, monospace" font-size="8" letter-spacing="1.8" fill="#5b6b7a" opacity="0.7">APRON 2</text>

  <g class="truck-g">
    <g transform="translate(602,428) rotate(-12)">
      <ellipse cx="0" cy="3" rx="15" ry="4" fill="#0a121d" opacity="0.55"/>
      <rect x="-14" y="-4.5" width="19" height="9" rx="3.5" fill="#7c8a84"/>
      <rect x="6" y="-4.5" width="7" height="9" rx="1" fill="#4a5560"/>
      <line x1="-14" y1="0" x2="5" y2="0" stroke="#4a5560" stroke-width="1" opacity="0.6"/>
      <circle cx="13.5" cy="-3" r="1" fill="#eef2f6" opacity="0.5" class="lt1"/>
    </g>
  </g>
  <g transform="translate(740,380) rotate(8)">
    <ellipse cx="0" cy="2.6" rx="9" ry="2.8" fill="#0a121d" opacity="0.5"/>
    <rect x="-7" y="-3.5" width="14" height="7" rx="1.5" fill="#4a5560"/>
    <rect x="2" y="-3.5" width="5" height="7" rx="1" fill="#6b7885"/>
  </g>
  <g transform="translate(700,430)">
    <ellipse cx="0" cy="2.2" rx="6.5" ry="2" fill="#0a121d" opacity="0.45"/>
    <rect x="-5" y="-2.5" width="10" height="5" rx="1" fill="#3a4a44"/>
    <rect x="-3.4" y="-1.4" width="6.8" height="2.8" fill="#4a5560"/>
  </g>

  <g class="ringa"><ellipse cx="563" cy="244" rx="72" ry="20" fill="none" stroke="#9fd4e8" stroke-width="1"/></g>
  <g class="ringa r2"><ellipse cx="563" cy="244" rx="72" ry="20" fill="none" stroke="#6aa9e9" stroke-width="1"/></g>
  <g class="ringb"><ellipse cx="253" cy="322" rx="64" ry="18" fill="none" stroke="#9fd4e8" stroke-width="1"/></g>

  <path class="l-flow2" d="M 563 246 C 596 282 636 330 666 372" fill="none" stroke="#6aa9e9" stroke-width="1.2" opacity="0.45"/>
  <text transform="rotate(-14 126 342)" x="126" y="342" font-family="ui-monospace, 'SF Mono', Menlo, monospace" font-size="10" letter-spacing="2" fill="#6aa9e9" opacity="0.9">FLIGHTLINE MESH</text>

  <g transform="translate(672,392) rotate(-20)">
    <ellipse cx="3" cy="5" rx="30" ry="13" fill="#1a2733" opacity="0.55"/>
    <polygon points="-33,7 -4,-7 4,-7 33,7 33,12 4,3 -4,3 -33,12" fill="#97a5ad"/>
    <polygon points="-13,27 -2,20 2,20 13,27 13,30 2,26 -2,26 -13,30" fill="#97a5ad"/>
    <rect x="-4.5" y="-31" width="9" height="62" rx="4.5" fill="#aab6b0"/>
    <path d="M -4.5 -22 L 4.5 -22 L 4.5 -14 L -4.5 -14 Z" fill="#d7dee6" opacity="0.35"/>
    <rect x="-3" y="-27" width="6" height="4.6" rx="2" fill="#4a5560"/>
    <line x1="0" y1="-9" x2="0" y2="28" stroke="#8b978f" stroke-width="0.7" opacity="0.7"/>
    <ellipse cx="-13" cy="3.5" rx="3" ry="6" fill="#6b7885"/>
    <ellipse cx="13" cy="3.5" rx="3" ry="6" fill="#6b7885"/>
    <rect x="-1.1" y="21" width="2.2" height="10" rx="1" fill="#d7dee6"/>
    <circle cx="31" cy="8.5" r="1" fill="#58c184" class="dot-b3"/>
    <circle cx="0" cy="32" r="1.1" fill="#6aa9e9" class="dot-b"/>
  </g>
  <rect x="626" y="350" width="94" height="86" rx="6" fill="none" stroke="#6aa9e9" stroke-width="1.3" opacity="0.75"/>
  <circle cx="720" cy="350" r="7" fill="#6aa9e9"/>
  <path d="M716.5 350 L719 352.5 L723.5 347.5" stroke="#0e1621" stroke-width="1.6" fill="none"/>

  <line x1="400" y1="142" x2="408" y2="280" stroke="#6aa9e9" stroke-width="1" opacity="0.4"/>
  <g>
    <rect x="322" y="84" width="178" height="58" rx="4" fill="#0e1621" opacity="0.92"/>
    <rect x="322" y="84" width="178" height="58" rx="4" fill="none" stroke="#6aa9e9" stroke-width="1" opacity="0.55"/>
    <circle cx="334" cy="96" r="2.4" fill="#58c184" class="dot-b"/>
    <text x="342" y="100" font-family="ui-monospace, 'SF Mono', Menlo, monospace" font-size="10" letter-spacing="1.5" fill="#d7dee6">NODE 03 UPLINK</text>
    <text x="464" y="100" font-family="ui-monospace, 'SF Mono', Menlo, monospace" font-size="8" letter-spacing="1.5" fill="#6aa9e9">LIVE</text>
    <clipPath id="wvclip"><rect x="332" y="106" width="158" height="14"/></clipPath>
    <g clip-path="url(#wvclip)">
      <g transform="translate(234,-74)">
        <polyline class="wave-poly" fill="none" stroke="#6aa9e9" stroke-width="1.1" opacity="0.85" points="308,113 313,113 316,108 319,118 322,110 325,117 328,112 330,113 332,113 337,113 340,108 343,118 346,110 349,117 352,112 354,113 356,113 361,113 364,108 367,118 370,110 373,117 376,112 378,113 380,113 385,113 388,108 391,118 394,110 397,117 400,112 402,113 404,113 409,113 412,108 415,118 418,110 421,117 424,112 426,113 428,113 433,113 436,108 439,118 442,110 445,117 448,112 450,113 452,113 457,113 460,108 463,118 466,110 469,117 472,112 474,113 476,113 481,113 484,108 487,118 490,110 493,117 496,112 498,113 500,113 505,113 508,108 511,118 514,110 517,117 520,112 522,113"/>
      </g>
    </g>
    <text x="332" y="134" font-family="ui-monospace, 'SF Mono', Menlo, monospace" font-size="8" letter-spacing="1.5" fill="#5b6b7a">SNR 31 DB · PKT 99.7%</text>
  </g>

  <line x1="296" y1="398" x2="296" y2="384" stroke="#7c8a84" stroke-width="1"/>
  <polygon points="296,384 312,387 296,391" fill="none" stroke="#d7dee6" stroke-width="1" opacity="0.4"/>
  <circle cx="296" cy="381" r="1.2" fill="#eef2f6" opacity="0.5" class="lt3"/>
  <line x1="64" y1="400" x2="88" y2="400" stroke="#5b6b7a" stroke-width="1"/>
  <text x="96" y="404" font-family="ui-monospace, 'SF Mono', Menlo, monospace" font-size="11" letter-spacing="2.5" fill="#8fa3b8">RWY 09L</text>

  <rect width="800" height="450" fill="url(#vg)"/>
</svg>
