<svg viewBox="0 0 800 450" xmlns="http://www.w3.org/2000/svg" role="img">
  <title>Adversary detection in denied environments: a seabed passive array sweeps dark water with slow rings that briefly reveal an intruder UUV inside a thin red tracking box</title>
  <style>
    .ring { transform-origin: 400px 380px; animation: ping 8s linear infinite; opacity: 0; }
    .ring.r2 { animation-delay: 4s; }
    @keyframes ping { 0% { transform: scale(0.06); opacity: 0.3; } 70% { transform: scale(1); opacity: 0; } 100% { transform: scale(1); opacity: 0; } }
    .dot-b { animation: blink 3.2s ease-in-out infinite; }
    @keyframes blink { 0%, 100% { opacity: 0.2; } 50% { opacity: 1; } }
    .intruder { animation: lurk 8s linear infinite; }
    @keyframes lurk { 0%, 30% { opacity: 0.35; } 42%, 55% { opacity: 1; } 70%, 100% { opacity: 0.35; } }
    .con { animation: con 8s linear infinite; opacity: 0; }
    @keyframes con { 0%, 38% { opacity: 0; } 48%, 78% { opacity: 0.85; } 90%, 100% { opacity: 0; } }
    .drift-i { animation: driftI 18s ease-in-out infinite alternate; }
    @keyframes driftI { from { transform: translate(0,0); } to { transform: translate(-26px, 8px); } }
    @media (prefers-reduced-motion: reduce) { * { animation: none !important; } }
  </style>
  <defs>
    <linearGradient id="bg" x1="0" y1="0" x2="0" y2="1">
      <stop offset="0" stop-color="#0c141f"/><stop offset="0.5" stop-color="#0e1621"/><stop offset="1" stop-color="#121c28"/>
    </linearGradient>
    <radialGradient id="vg" cx="0.5" cy="0.45" r="0.8">
      <stop offset="0.55" stop-color="#0a121d" stop-opacity="0"/><stop offset="1" stop-color="#0a121d" stop-opacity="0.5"/>
    </radialGradient>
    <symbol id="bush1" viewBox="0 0 20 14">
      <ellipse cx="7" cy="8" rx="7" ry="5" fill="#37453e"/><ellipse cx="13" cy="7" rx="6" ry="4.6" fill="#48564e"/><ellipse cx="10" cy="5" rx="4" ry="3" fill="#5d6b62"/>
    </symbol>
    <symbol id="bush3" viewBox="0 0 12 10">
      <ellipse cx="5" cy="6" rx="5" ry="3.6" fill="#37453e"/><ellipse cx="8" cy="4.6" rx="3.4" ry="2.6" fill="#48564e"/>
    </symbol>
    <symbol id="rock" viewBox="0 0 16 10"><path d="M2 10 L5 3 L9 5 L12 2 L15 10 Z" fill="#1a2733"/><path d="M5 3 L9 5 L8 10 L2 10 Z" fill="#232f3d"/></symbol>
    <symbol id="plus" viewBox="0 0 8 8"><path d="M4 0v8M0 4h8" stroke="#eef2f6" stroke-width="1" fill="none"/></symbol>
  </defs>

  <rect width="800" height="450" fill="url(#bg)"/>
  <g fill="none" stroke="#eef2f6" stroke-width="1">
    <path d="M-20 86 C 160 70 360 96 560 80 S 760 62 820 72" opacity="0.035"/>
    <path d="M-20 150 C 180 136 380 162 580 146 S 770 130 820 140" opacity="0.04"/>
    <path d="M-20 214 C 170 200 370 226 570 210 S 770 194 820 204" opacity="0.04"/>
    <path d="M-20 280 C 190 266 380 292 590 276 S 775 262 820 272" opacity="0.04"/>
    <path d="M-20 345 C 175 331 385 357 585 341 S 770 325 820 335" opacity="0.035"/>
    <path d="M75 -20 C 55 140 75 300 45 470" opacity="0.03"/>
    <path d="M240 -20 C 220 150 245 310 220 470" opacity="0.035"/>
    <path d="M405 -20 C 388 150 410 300 390 470" opacity="0.035"/>
    <path d="M570 -20 C 553 140 577 300 557 470" opacity="0.03"/>
    <path d="M-20 42 C 240 18 560 20 820 38" opacity="0.05"/>
  </g>
  <ellipse cx="280" cy="300" rx="180" ry="56" fill="#eef2f6" opacity="0.02"/>
  <ellipse cx="580" cy="220" rx="150" ry="46" fill="#eef2f6" opacity="0.022"/>
  <use href="#plus" x="110" y="120" width="8" height="8" opacity="0.12"/>
  <use href="#plus" x="340" y="80" width="7" height="7" opacity="0.1"/>
  <use href="#plus" x="500" y="330" width="7" height="7" opacity="0.11"/>
  <use href="#plus" x="720" y="180" width="7" height="7" opacity="0.09"/>
  <circle cx="180" cy="200" r="1" fill="#eef2f6" opacity="0.11"/>
  <circle cx="440" cy="140" r="1" fill="#eef2f6" opacity="0.1"/>
  <circle cx="640" cy="330" r="1.2" fill="#eef2f6" opacity="0.09"/>
  <circle cx="90" cy="330" r="1" fill="#eef2f6" opacity="0.08"/>

  <g>
    <path d="M-20 26 C 44 46 74 96 52 148 C 36 186 4 206 -20 212 Z" fill="#aab6b0"/>
    <path d="M-20 40 C 30 58 54 100 36 142 C 24 170 0 190 -20 196 Z" fill="#d7dee6" opacity="0.4"/>
    <path d="M-20 26 C 44 46 74 96 52 148 C 36 186 4 206 -20 212" fill="none" stroke="#2ec4b6" stroke-width="4" opacity="0.1"/>
    <use href="#bush1" x="-6" y="70" width="19" height="13"/>
    <use href="#bush3" x="6" y="92" width="13" height="10"/>
    <use href="#bush1" x="-10" y="104" width="21" height="14"/>
    <use href="#bush3" x="0" y="124" width="12" height="9"/>
    <use href="#bush1" x="-8" y="138" width="17" height="12"/>
    <use href="#bush3" x="10" y="76" width="11" height="8"/>
    <use href="#bush1" x="18" y="60" width="18" height="12"/>
    <use href="#bush3" x="30" y="84" width="12" height="9"/>
    <use href="#bush1" x="22" y="106" width="20" height="14"/>
    <use href="#bush3" x="34" y="128" width="11" height="8"/>
    <use href="#bush1" x="14" y="148" width="17" height="12"/>
    <use href="#bush3" x="2" y="166" width="12" height="9"/>
    <use href="#bush3" x="20" y="44" width="11" height="8"/>
    <polygon points="8,72 17,56 26,72" fill="#97a5ad"/>
    <circle cx="66" cy="136" r="2" fill="#d7dee6" opacity="0.6"/>
  </g>

  <text x="150" y="286" font-family="ui-monospace, 'SF Mono', Menlo, monospace" font-size="10" letter-spacing="2" fill="#6aa9e9" opacity="0.9">PASSIVE DETECTION SWEEP</text>
  <g class="ring"><ellipse cx="400" cy="380" rx="330" ry="150" fill="none" stroke="#9fd4e8" stroke-width="1"/></g>
  <g class="ring r2"><ellipse cx="400" cy="380" rx="330" ry="150" fill="none" stroke="#2ec4b6" stroke-width="1"/></g>

  <g>
    <ellipse cx="400" cy="396" rx="46" ry="8" fill="#1a2733" opacity="0.65"/>
    <path d="M366 392 L434 392 L424 378 L376 378 Z" fill="#232f3d"/>
    <rect x="382" y="368" width="10" height="10" fill="#4a5560"/>
    <rect x="408" y="368" width="10" height="10" fill="#4a5560"/>
    <rect x="396" y="356" width="8" height="22" fill="#3a4a44"/>
    <line x1="400" y1="342" x2="400" y2="356" stroke="#d7dee6" stroke-width="1.4"/>
    <circle cx="400" cy="339" r="2.6" fill="#6aa9e9" class="dot-b"/>
    <ellipse cx="400" cy="392" rx="58" ry="10" fill="none" stroke="#4a5560" stroke-width="1" opacity="0.6"/>
    <line x1="384" y1="373" x2="390" y2="373" stroke="#232f3d" stroke-width="1"/>
    <line x1="410" y1="373" x2="416" y2="373" stroke="#232f3d" stroke-width="1"/>
    <path d="M434 390 C 470 396 500 402 528 402" fill="none" stroke="#4a5560" stroke-width="1" opacity="0.7"/>
    <circle cx="530" cy="402" r="1.6" fill="#4a5560"/>
  </g>
  <g>
    <line x1="452" y1="404" x2="474" y2="404" stroke="#5b6b7a" stroke-width="1"/>
    <text x="482" y="408" font-family="ui-monospace, 'SF Mono', Menlo, monospace" font-size="11" letter-spacing="2.5" fill="#8fa3b8">PASSIVE ARRAY</text>
  </g>

  <g class="drift-i">
    <g class="intruder">
      <ellipse cx="586" cy="128" rx="24" ry="7" fill="#3a4a44"/>
      <polygon points="562,128 552,123 552,133" fill="#37453e"/>
      <path d="M610 128 a 8 7 0 0 0 -6 -6.7 L 604 134.7 a 8 7 0 0 0 6 -6.7 Z" fill="#37453e"/>
      <line x1="548" y1="126" x2="536" y2="125" stroke="#eef2f6" stroke-width="1" opacity="0.1"/>
      <line x1="549" y1="131" x2="540" y2="132" stroke="#eef2f6" stroke-width="1" opacity="0.07"/>
      <line x1="556" y1="122" x2="556" y2="134" stroke="#37453e" stroke-width="1"/>
      <line x1="560" y1="123" x2="560" y2="133" stroke="#37453e" stroke-width="1"/>
      <circle cx="608" cy="126" r="1.6" fill="#9fd4e8" opacity="0.35"/>
    </g>
    <g class="con">
      <rect x="546" y="104" width="86" height="48" rx="5" fill="none" stroke="#e2544a" stroke-width="1.2"/>
      <circle cx="632" cy="104" r="6.6" fill="#e2544a"/>
      <path d="M629 101 L635 107 M635 101 L629 107" stroke="#0e1621" stroke-width="1.5"/>
      <text x="546" y="96" font-family="ui-monospace, 'SF Mono', Menlo, monospace" font-size="10" letter-spacing="2" fill="#e2544a">CONTACT</text>
    </g>
  </g>

  <g class="con">
    <line x1="580" y1="176" x2="562" y2="156" stroke="#e2544a" stroke-width="1" opacity="0.6"/>
    <rect x="484" y="176" width="180" height="64" rx="4" fill="#0e1621" opacity="0.92"/>
    <rect x="484" y="176" width="180" height="64" rx="4" fill="none" stroke="#e2544a" stroke-width="1" opacity="0.5"/>
    <circle cx="496" cy="188" r="2.4" fill="#e2544a"/>
    <text x="504" y="192" font-family="ui-monospace, 'SF Mono', Menlo, monospace" font-size="10" letter-spacing="1.5" fill="#d7dee6">CONTACT 04</text>
    <text x="614" y="192" font-family="ui-monospace, 'SF Mono', Menlo, monospace" font-size="8" letter-spacing="1.5" fill="#e2544a">TRACK</text>
    <g fill="#e2544a" opacity="0.55">
      <rect x="496" y="202" width="6" height="10"/><rect x="506" y="206" width="6" height="6"/>
      <rect x="516" y="200" width="6" height="12"/><rect x="526" y="204" width="6" height="8"/>
      <rect x="536" y="207" width="6" height="5"/><rect x="546" y="201" width="6" height="11"/>
      <rect x="556" y="205" width="6" height="7"/><rect x="566" y="203" width="6" height="9"/>
    </g>
    <text x="496" y="230" font-family="ui-monospace, 'SF Mono', Menlo, monospace" font-size="8" letter-spacing="1.5" fill="#5b6b7a">BRG 042 · RNG 1.2 KM</text>
  </g>

  <g fill="none" stroke="#3a4a44" stroke-width="1">
    <path d="M120 428 L138 414 L156 428"/>
    <path d="M600 434 l7 -6 7 6"/>
    <path d="M300 420 l9 -7 9 7"/>
    <path d="M700 424 l8 -6 8 6"/>
  </g>
  <use href="#rock" x="200" y="430" width="15" height="9"/>
  <use href="#rock" x="480" y="426" width="13" height="8"/>
  <use href="#rock" x="660" y="434" width="12" height="8"/>
  <use href="#rock" x="70" y="404" width="13" height="8"/>
  <g stroke="#3a4a44" stroke-width="1" fill="none">
    <path d="M250 434 C 248 426 251 421 249 415 M254 434 C 254 426 257 422 256 416"/>
    <path d="M550 428 C 548 421 551 417 549 412 M554 428 C 554 421 557 417 556 413"/>
  </g>

  <rect width="800" height="450" fill="url(#vg)"/>
</svg>
